<mxfile host="app.diagrams.net" modified="2023-10-10T21:37:24.299Z" agent="Mozilla/5.0 (Windows NT 10.0; Win64; x64) AppleWebKit/537.36 (KHTML, like Gecko) Chrome/117.0.0.0 Safari/537.36" etag="pO8m9I5e15bpM0VbYvtJ" version="22.0.0" type="github">
  <diagram name="Page-1" id="rGuYha_ihY319ISd8MzV">
    <mxGraphModel dx="1472" dy="2200" grid="1" gridSize="10" guides="1" tooltips="1" connect="1" arrows="1" fold="1" page="1" pageScale="1" pageWidth="850" pageHeight="1100" math="0" shadow="0">
      <root>
        <mxCell id="0" />
        <mxCell id="1" parent="0" />
        <mxCell id="za8EDoor_-EJzlwWxWrH-78" value="" style="triangle;whiteSpace=wrap;html=1;rotation=-90;" parent="1" vertex="1">
          <mxGeometry x="372" y="809.5" width="60" height="415" as="geometry" />
        </mxCell>
        <mxCell id="za8EDoor_-EJzlwWxWrH-44" value="ETL" style="rounded=0;whiteSpace=wrap;html=1;verticalAlign=top;fontSize=15;fontStyle=1" parent="1" vertex="1">
          <mxGeometry x="100" y="320" width="420" height="130" as="geometry" />
        </mxCell>
        <mxCell id="za8EDoor_-EJzlwWxWrH-43" value="Databases" style="rounded=0;whiteSpace=wrap;html=1;verticalAlign=top;fontSize=15;fontStyle=1" parent="1" vertex="1">
          <mxGeometry x="100" y="50" width="590" height="232" as="geometry" />
        </mxCell>
        <mxCell id="za8EDoor_-EJzlwWxWrH-31" value="Analytical Servers" style="rounded=0;whiteSpace=wrap;html=1;verticalAlign=top;fontSize=15;fontStyle=1" parent="1" vertex="1">
          <mxGeometry x="100" y="481" width="660" height="240" as="geometry" />
        </mxCell>
        <mxCell id="za8EDoor_-EJzlwWxWrH-61" style="edgeStyle=orthogonalEdgeStyle;rounded=0;orthogonalLoop=1;jettySize=auto;html=1;exitX=0;exitY=0.5;exitDx=0;exitDy=0;entryX=0;entryY=0.5;entryDx=0;entryDy=0;" parent="1" source="za8EDoor_-EJzlwWxWrH-1" target="za8EDoor_-EJzlwWxWrH-7" edge="1">
          <mxGeometry relative="1" as="geometry">
            <Array as="points">
              <mxPoint x="80" y="120" />
              <mxPoint x="80" y="390" />
            </Array>
          </mxGeometry>
        </mxCell>
        <mxCell id="za8EDoor_-EJzlwWxWrH-63" style="edgeStyle=orthogonalEdgeStyle;rounded=0;orthogonalLoop=1;jettySize=auto;html=1;exitX=0;exitY=0.5;exitDx=0;exitDy=0;entryX=0.5;entryY=1;entryDx=0;entryDy=0;" parent="1" source="za8EDoor_-EJzlwWxWrH-1" target="za8EDoor_-EJzlwWxWrH-30" edge="1">
          <mxGeometry relative="1" as="geometry">
            <Array as="points">
              <mxPoint x="80" y="120" />
              <mxPoint x="80" y="711" />
              <mxPoint x="310" y="711" />
            </Array>
          </mxGeometry>
        </mxCell>
        <mxCell id="za8EDoor_-EJzlwWxWrH-1" value="Elasticsearch" style="rounded=0;whiteSpace=wrap;html=1;verticalAlign=top;" parent="1" vertex="1">
          <mxGeometry x="120" y="90" width="380" height="60" as="geometry" />
        </mxCell>
        <mxCell id="za8EDoor_-EJzlwWxWrH-2" value="Node 1&lt;br&gt;Metricbeat&lt;br&gt;192.168.50.12" style="rounded=0;whiteSpace=wrap;html=1;" parent="1" vertex="1">
          <mxGeometry x="150" y="120" width="100" height="50" as="geometry" />
        </mxCell>
        <mxCell id="za8EDoor_-EJzlwWxWrH-3" value="Node 2&lt;br style=&quot;border-color: var(--border-color);&quot;&gt;Metricbeat&lt;br&gt;192.168.50.14" style="rounded=0;whiteSpace=wrap;html=1;" parent="1" vertex="1">
          <mxGeometry x="260" y="120" width="100" height="50" as="geometry" />
        </mxCell>
        <mxCell id="za8EDoor_-EJzlwWxWrH-4" value="Node 3&lt;br style=&quot;border-color: var(--border-color);&quot;&gt;Metricbeat&lt;br&gt;192.168.50.17" style="rounded=0;whiteSpace=wrap;html=1;" parent="1" vertex="1">
          <mxGeometry x="370" y="120" width="100" height="50" as="geometry" />
        </mxCell>
        <mxCell id="za8EDoor_-EJzlwWxWrH-5" value="PostgreSQL" style="rounded=0;whiteSpace=wrap;html=1;verticalAlign=top;" parent="1" vertex="1">
          <mxGeometry x="520" y="90" width="150" height="60" as="geometry" />
        </mxCell>
        <mxCell id="za8EDoor_-EJzlwWxWrH-40" style="edgeStyle=orthogonalEdgeStyle;rounded=0;orthogonalLoop=1;jettySize=auto;html=1;exitX=0.5;exitY=1;exitDx=0;exitDy=0;entryX=1;entryY=0.5;entryDx=0;entryDy=0;" parent="1" source="za8EDoor_-EJzlwWxWrH-6" target="za8EDoor_-EJzlwWxWrH-7" edge="1">
          <mxGeometry relative="1" as="geometry" />
        </mxCell>
        <mxCell id="za8EDoor_-EJzlwWxWrH-6" value="Server&lt;br&gt;192.168.50.13" style="rounded=0;whiteSpace=wrap;html=1;" parent="1" vertex="1">
          <mxGeometry x="545" y="120" width="100" height="40" as="geometry" />
        </mxCell>
        <mxCell id="za8EDoor_-EJzlwWxWrH-39" style="edgeStyle=orthogonalEdgeStyle;rounded=0;orthogonalLoop=1;jettySize=auto;html=1;exitX=1;exitY=0.5;exitDx=0;exitDy=0;entryX=0.5;entryY=1;entryDx=0;entryDy=0;" parent="1" source="za8EDoor_-EJzlwWxWrH-7" target="za8EDoor_-EJzlwWxWrH-6" edge="1">
          <mxGeometry relative="1" as="geometry" />
        </mxCell>
        <mxCell id="za8EDoor_-EJzlwWxWrH-58" style="edgeStyle=orthogonalEdgeStyle;rounded=0;orthogonalLoop=1;jettySize=auto;html=1;exitX=0;exitY=0.5;exitDx=0;exitDy=0;entryX=0;entryY=0.5;entryDx=0;entryDy=0;" parent="1" source="za8EDoor_-EJzlwWxWrH-7" target="za8EDoor_-EJzlwWxWrH-11" edge="1">
          <mxGeometry relative="1" as="geometry">
            <Array as="points">
              <mxPoint x="80" y="390" />
              <mxPoint x="80" y="212" />
            </Array>
          </mxGeometry>
        </mxCell>
        <mxCell id="za8EDoor_-EJzlwWxWrH-79" style="edgeStyle=orthogonalEdgeStyle;rounded=0;orthogonalLoop=1;jettySize=auto;html=1;exitX=1;exitY=0.5;exitDx=0;exitDy=0;entryX=1;entryY=0.5;entryDx=0;entryDy=0;" parent="1" source="za8EDoor_-EJzlwWxWrH-7" target="za8EDoor_-EJzlwWxWrH-76" edge="1">
          <mxGeometry relative="1" as="geometry">
            <Array as="points">
              <mxPoint x="810" y="390" />
              <mxPoint x="810" y="1050" />
            </Array>
          </mxGeometry>
        </mxCell>
        <mxCell id="za8EDoor_-EJzlwWxWrH-80" style="edgeStyle=orthogonalEdgeStyle;rounded=0;orthogonalLoop=1;jettySize=auto;html=1;exitX=1;exitY=0.5;exitDx=0;exitDy=0;entryX=0.5;entryY=1;entryDx=0;entryDy=0;" parent="1" source="za8EDoor_-EJzlwWxWrH-7" target="za8EDoor_-EJzlwWxWrH-75" edge="1">
          <mxGeometry relative="1" as="geometry">
            <Array as="points">
              <mxPoint x="810" y="390" />
              <mxPoint x="810" y="1110" />
              <mxPoint x="403" y="1110" />
            </Array>
          </mxGeometry>
        </mxCell>
        <mxCell id="za8EDoor_-EJzlwWxWrH-7" value="Apache NiFi" style="rounded=0;whiteSpace=wrap;html=1;verticalAlign=top;" parent="1" vertex="1">
          <mxGeometry x="120" y="360" width="380" height="60" as="geometry" />
        </mxCell>
        <mxCell id="za8EDoor_-EJzlwWxWrH-8" value="Node 1&lt;br&gt;192.168.50.5" style="rounded=0;whiteSpace=wrap;html=1;" parent="1" vertex="1">
          <mxGeometry x="150" y="390" width="100" height="40" as="geometry" />
        </mxCell>
        <mxCell id="za8EDoor_-EJzlwWxWrH-9" value="Node 2&lt;br&gt;192.168.50.6" style="rounded=0;whiteSpace=wrap;html=1;" parent="1" vertex="1">
          <mxGeometry x="260" y="390" width="100" height="40" as="geometry" />
        </mxCell>
        <mxCell id="za8EDoor_-EJzlwWxWrH-10" value="Node 3&lt;br&gt;192.168.50.8" style="rounded=0;whiteSpace=wrap;html=1;" parent="1" vertex="1">
          <mxGeometry x="370" y="390" width="100" height="40" as="geometry" />
        </mxCell>
        <mxCell id="za8EDoor_-EJzlwWxWrH-60" style="edgeStyle=orthogonalEdgeStyle;rounded=0;orthogonalLoop=1;jettySize=auto;html=1;exitX=0;exitY=0.5;exitDx=0;exitDy=0;entryX=0;entryY=0.5;entryDx=0;entryDy=0;" parent="1" source="za8EDoor_-EJzlwWxWrH-11" target="za8EDoor_-EJzlwWxWrH-7" edge="1">
          <mxGeometry relative="1" as="geometry">
            <Array as="points">
              <mxPoint x="80" y="212" />
              <mxPoint x="80" y="390" />
            </Array>
          </mxGeometry>
        </mxCell>
        <mxCell id="za8EDoor_-EJzlwWxWrH-11" value="Apache Kafka" style="rounded=0;whiteSpace=wrap;html=1;verticalAlign=top;" parent="1" vertex="1">
          <mxGeometry x="120" y="182" width="380" height="60" as="geometry" />
        </mxCell>
        <mxCell id="za8EDoor_-EJzlwWxWrH-12" value="Broker 1&lt;br&gt;Ext. Zookeeper 1&lt;br&gt;192.168.50.29" style="rounded=0;whiteSpace=wrap;html=1;" parent="1" vertex="1">
          <mxGeometry x="150" y="212" width="100" height="50" as="geometry" />
        </mxCell>
        <mxCell id="za8EDoor_-EJzlwWxWrH-13" value="Broker 2&lt;br&gt;Ext.&amp;nbsp;Zookeeper 2&lt;br&gt;192.168.50.30" style="rounded=0;whiteSpace=wrap;html=1;" parent="1" vertex="1">
          <mxGeometry x="260" y="212" width="100" height="50" as="geometry" />
        </mxCell>
        <mxCell id="za8EDoor_-EJzlwWxWrH-14" value="Broker 3&lt;br&gt;Ext.&amp;nbsp;Zookeeper 3&lt;br&gt;192.168.50.31" style="rounded=0;whiteSpace=wrap;html=1;" parent="1" vertex="1">
          <mxGeometry x="370" y="212" width="100" height="50" as="geometry" />
        </mxCell>
        <mxCell id="za8EDoor_-EJzlwWxWrH-21" style="edgeStyle=orthogonalEdgeStyle;rounded=0;orthogonalLoop=1;jettySize=auto;html=1;exitX=1;exitY=0.5;exitDx=0;exitDy=0;entryX=0;entryY=0.5;entryDx=0;entryDy=0;" parent="1" source="za8EDoor_-EJzlwWxWrH-15" target="za8EDoor_-EJzlwWxWrH-19" edge="1">
          <mxGeometry relative="1" as="geometry" />
        </mxCell>
        <mxCell id="za8EDoor_-EJzlwWxWrH-15" value="Apache Spark" style="rounded=0;whiteSpace=wrap;html=1;verticalAlign=top;" parent="1" vertex="1">
          <mxGeometry x="120" y="521" width="380" height="60" as="geometry" />
        </mxCell>
        <mxCell id="za8EDoor_-EJzlwWxWrH-16" value="Worker 1&lt;br&gt;192.168.50.33" style="rounded=0;whiteSpace=wrap;html=1;" parent="1" vertex="1">
          <mxGeometry x="150" y="551" width="100" height="40" as="geometry" />
        </mxCell>
        <mxCell id="za8EDoor_-EJzlwWxWrH-17" value="Worker 2*&lt;br&gt;192.168.50.XX" style="rounded=0;whiteSpace=wrap;html=1;" parent="1" vertex="1">
          <mxGeometry x="260" y="551" width="100" height="40" as="geometry" />
        </mxCell>
        <mxCell id="za8EDoor_-EJzlwWxWrH-18" value="Worker 3*&lt;br&gt;192.168.50.XX" style="rounded=0;whiteSpace=wrap;html=1;" parent="1" vertex="1">
          <mxGeometry x="370" y="551" width="100" height="40" as="geometry" />
        </mxCell>
        <mxCell id="za8EDoor_-EJzlwWxWrH-22" style="edgeStyle=orthogonalEdgeStyle;rounded=0;orthogonalLoop=1;jettySize=auto;html=1;exitX=0;exitY=0.5;exitDx=0;exitDy=0;entryX=1;entryY=0.5;entryDx=0;entryDy=0;" parent="1" source="za8EDoor_-EJzlwWxWrH-19" target="za8EDoor_-EJzlwWxWrH-15" edge="1">
          <mxGeometry relative="1" as="geometry" />
        </mxCell>
        <mxCell id="za8EDoor_-EJzlwWxWrH-19" value="Apache Livy" style="rounded=0;whiteSpace=wrap;html=1;verticalAlign=top;" parent="1" vertex="1">
          <mxGeometry x="520" y="521" width="150" height="60" as="geometry" />
        </mxCell>
        <mxCell id="za8EDoor_-EJzlwWxWrH-20" value="Server&lt;br&gt;192.168.50.34" style="rounded=0;whiteSpace=wrap;html=1;" parent="1" vertex="1">
          <mxGeometry x="545" y="551" width="100" height="40" as="geometry" />
        </mxCell>
        <mxCell id="za8EDoor_-EJzlwWxWrH-28" value="GUIs" style="rounded=0;whiteSpace=wrap;html=1;verticalAlign=top;" parent="1" vertex="1">
          <mxGeometry x="120" y="621" width="610" height="60" as="geometry" />
        </mxCell>
        <mxCell id="za8EDoor_-EJzlwWxWrH-29" value="JupyterLab&lt;br&gt;192.168.50.18" style="rounded=0;whiteSpace=wrap;html=1;" parent="1" vertex="1">
          <mxGeometry x="145" y="651" width="100" height="40" as="geometry" />
        </mxCell>
        <mxCell id="za8EDoor_-EJzlwWxWrH-62" style="edgeStyle=orthogonalEdgeStyle;rounded=0;orthogonalLoop=1;jettySize=auto;html=1;exitX=0.5;exitY=1;exitDx=0;exitDy=0;" parent="1" source="za8EDoor_-EJzlwWxWrH-30" edge="1">
          <mxGeometry relative="1" as="geometry">
            <mxPoint x="120" y="120" as="targetPoint" />
            <Array as="points">
              <mxPoint x="310" y="710" />
              <mxPoint x="80" y="710" />
              <mxPoint x="80" y="120" />
            </Array>
          </mxGeometry>
        </mxCell>
        <mxCell id="za8EDoor_-EJzlwWxWrH-30" value="Kibana&lt;br&gt;192.168.50.18" style="rounded=0;whiteSpace=wrap;html=1;" parent="1" vertex="1">
          <mxGeometry x="260" y="651" width="100" height="40" as="geometry" />
        </mxCell>
        <mxCell id="za8EDoor_-EJzlwWxWrH-33" style="edgeStyle=orthogonalEdgeStyle;rounded=0;orthogonalLoop=1;jettySize=auto;html=1;exitX=0;exitY=0.5;exitDx=0;exitDy=0;" parent="1" source="za8EDoor_-EJzlwWxWrH-29" edge="1">
          <mxGeometry relative="1" as="geometry">
            <mxPoint x="120" y="551" as="targetPoint" />
            <Array as="points">
              <mxPoint x="110" y="671" />
              <mxPoint x="110" y="551" />
            </Array>
          </mxGeometry>
        </mxCell>
        <mxCell id="za8EDoor_-EJzlwWxWrH-35" style="edgeStyle=orthogonalEdgeStyle;rounded=0;orthogonalLoop=1;jettySize=auto;html=1;exitX=0;exitY=0.5;exitDx=0;exitDy=0;entryX=0;entryY=0.5;entryDx=0;entryDy=0;" parent="1" source="za8EDoor_-EJzlwWxWrH-15" target="za8EDoor_-EJzlwWxWrH-29" edge="1">
          <mxGeometry relative="1" as="geometry">
            <Array as="points">
              <mxPoint x="110" y="551" />
              <mxPoint x="110" y="671" />
            </Array>
          </mxGeometry>
        </mxCell>
        <mxCell id="za8EDoor_-EJzlwWxWrH-45" value="CI / CD, Deployment" style="rounded=0;whiteSpace=wrap;html=1;verticalAlign=top;fontSize=15;fontStyle=1" parent="1" vertex="1">
          <mxGeometry x="100" y="761" width="590" height="240" as="geometry" />
        </mxCell>
        <mxCell id="za8EDoor_-EJzlwWxWrH-65" style="edgeStyle=orthogonalEdgeStyle;rounded=0;orthogonalLoop=1;jettySize=auto;html=1;exitX=1;exitY=0.5;exitDx=0;exitDy=0;entryX=0;entryY=0.5;entryDx=0;entryDy=0;" parent="1" source="za8EDoor_-EJzlwWxWrH-46" target="za8EDoor_-EJzlwWxWrH-48" edge="1">
          <mxGeometry relative="1" as="geometry" />
        </mxCell>
        <mxCell id="za8EDoor_-EJzlwWxWrH-46" value="Jenkins" style="rounded=0;whiteSpace=wrap;html=1;verticalAlign=top;" parent="1" vertex="1">
          <mxGeometry x="121" y="801" width="150" height="60" as="geometry" />
        </mxCell>
        <mxCell id="za8EDoor_-EJzlwWxWrH-70" style="edgeStyle=orthogonalEdgeStyle;rounded=0;orthogonalLoop=1;jettySize=auto;html=1;exitX=0.5;exitY=1;exitDx=0;exitDy=0;entryX=0.5;entryY=0;entryDx=0;entryDy=0;" parent="1" source="za8EDoor_-EJzlwWxWrH-47" target="za8EDoor_-EJzlwWxWrH-56" edge="1">
          <mxGeometry relative="1" as="geometry">
            <Array as="points">
              <mxPoint x="196" y="881" />
              <mxPoint x="591" y="881" />
            </Array>
          </mxGeometry>
        </mxCell>
        <mxCell id="za8EDoor_-EJzlwWxWrH-47" value="Server&lt;br&gt;192.168.50.19" style="rounded=0;whiteSpace=wrap;html=1;" parent="1" vertex="1">
          <mxGeometry x="146" y="831" width="100" height="40" as="geometry" />
        </mxCell>
        <mxCell id="za8EDoor_-EJzlwWxWrH-66" style="edgeStyle=orthogonalEdgeStyle;rounded=0;orthogonalLoop=1;jettySize=auto;html=1;exitX=0;exitY=0.5;exitDx=0;exitDy=0;entryX=1;entryY=0.5;entryDx=0;entryDy=0;" parent="1" source="za8EDoor_-EJzlwWxWrH-48" target="za8EDoor_-EJzlwWxWrH-46" edge="1">
          <mxGeometry relative="1" as="geometry" />
        </mxCell>
        <mxCell id="za8EDoor_-EJzlwWxWrH-67" style="edgeStyle=orthogonalEdgeStyle;rounded=0;orthogonalLoop=1;jettySize=auto;html=1;exitX=1;exitY=0.5;exitDx=0;exitDy=0;entryX=0;entryY=0.5;entryDx=0;entryDy=0;" parent="1" source="za8EDoor_-EJzlwWxWrH-48" target="za8EDoor_-EJzlwWxWrH-50" edge="1">
          <mxGeometry relative="1" as="geometry" />
        </mxCell>
        <mxCell id="za8EDoor_-EJzlwWxWrH-48" value="Sonarqube" style="rounded=0;whiteSpace=wrap;html=1;verticalAlign=top;" parent="1" vertex="1">
          <mxGeometry x="296" y="801" width="150" height="60" as="geometry" />
        </mxCell>
        <mxCell id="za8EDoor_-EJzlwWxWrH-49" value="Server&lt;br&gt;192.168.50.22" style="rounded=0;whiteSpace=wrap;html=1;" parent="1" vertex="1">
          <mxGeometry x="321" y="831" width="100" height="40" as="geometry" />
        </mxCell>
        <mxCell id="za8EDoor_-EJzlwWxWrH-68" style="edgeStyle=orthogonalEdgeStyle;rounded=0;orthogonalLoop=1;jettySize=auto;html=1;exitX=0;exitY=0.5;exitDx=0;exitDy=0;entryX=1;entryY=0.5;entryDx=0;entryDy=0;" parent="1" source="za8EDoor_-EJzlwWxWrH-50" target="za8EDoor_-EJzlwWxWrH-48" edge="1">
          <mxGeometry relative="1" as="geometry" />
        </mxCell>
        <mxCell id="za8EDoor_-EJzlwWxWrH-50" value="Nexus" style="rounded=0;whiteSpace=wrap;html=1;verticalAlign=top;" parent="1" vertex="1">
          <mxGeometry x="471" y="801" width="150" height="60" as="geometry" />
        </mxCell>
        <mxCell id="za8EDoor_-EJzlwWxWrH-51" value="Server&lt;br&gt;192.168.50.25" style="rounded=0;whiteSpace=wrap;html=1;" parent="1" vertex="1">
          <mxGeometry x="496" y="831" width="100" height="40" as="geometry" />
        </mxCell>
        <mxCell id="za8EDoor_-EJzlwWxWrH-52" value="Kubernetes" style="rounded=0;whiteSpace=wrap;html=1;verticalAlign=top;" parent="1" vertex="1">
          <mxGeometry x="121" y="901" width="380" height="60" as="geometry" />
        </mxCell>
        <mxCell id="za8EDoor_-EJzlwWxWrH-53" value="Node 1&lt;br&gt;192.168.50.26" style="rounded=0;whiteSpace=wrap;html=1;" parent="1" vertex="1">
          <mxGeometry x="151" y="931" width="100" height="40" as="geometry" />
        </mxCell>
        <mxCell id="za8EDoor_-EJzlwWxWrH-54" value="Node 2&lt;br&gt;192.168.50.27" style="rounded=0;whiteSpace=wrap;html=1;" parent="1" vertex="1">
          <mxGeometry x="261" y="931" width="100" height="40" as="geometry" />
        </mxCell>
        <mxCell id="za8EDoor_-EJzlwWxWrH-55" value="Node 3&lt;br&gt;192.168.50.28" style="rounded=0;whiteSpace=wrap;html=1;" parent="1" vertex="1">
          <mxGeometry x="371" y="931" width="100" height="40" as="geometry" />
        </mxCell>
        <mxCell id="za8EDoor_-EJzlwWxWrH-56" value="Docker" style="rounded=0;whiteSpace=wrap;html=1;verticalAlign=top;" parent="1" vertex="1">
          <mxGeometry x="516" y="901" width="150" height="60" as="geometry" />
        </mxCell>
        <mxCell id="za8EDoor_-EJzlwWxWrH-57" value="Server&lt;br&gt;192.168.50.21" style="rounded=0;whiteSpace=wrap;html=1;" parent="1" vertex="1">
          <mxGeometry x="541" y="931" width="100" height="40" as="geometry" />
        </mxCell>
        <mxCell id="za8EDoor_-EJzlwWxWrH-69" style="edgeStyle=orthogonalEdgeStyle;rounded=0;orthogonalLoop=1;jettySize=auto;html=1;exitX=0.5;exitY=1;exitDx=0;exitDy=0;entryX=0.199;entryY=-0.006;entryDx=0;entryDy=0;entryPerimeter=0;" parent="1" source="za8EDoor_-EJzlwWxWrH-47" target="za8EDoor_-EJzlwWxWrH-52" edge="1">
          <mxGeometry relative="1" as="geometry" />
        </mxCell>
        <mxCell id="za8EDoor_-EJzlwWxWrH-71" value="Portainer&lt;br&gt;192.168.50.21" style="rounded=0;whiteSpace=wrap;html=1;" parent="1" vertex="1">
          <mxGeometry x="375" y="651" width="100" height="40" as="geometry" />
        </mxCell>
        <mxCell id="za8EDoor_-EJzlwWxWrH-72" value="Rancher&lt;br&gt;192.168.50.21" style="rounded=0;whiteSpace=wrap;html=1;" parent="1" vertex="1">
          <mxGeometry x="490" y="651" width="100" height="40" as="geometry" />
        </mxCell>
        <mxCell id="za8EDoor_-EJzlwWxWrH-74" value="Sentiment API" style="rounded=0;whiteSpace=wrap;html=1;" parent="1" vertex="1">
          <mxGeometry x="192" y="1021" width="120" height="60" as="geometry" />
        </mxCell>
        <mxCell id="za8EDoor_-EJzlwWxWrH-75" value="Language &lt;br&gt;Translation API &lt;br&gt;(CPU-only)" style="rounded=0;whiteSpace=wrap;html=1;" parent="1" vertex="1">
          <mxGeometry x="343" y="1021" width="120" height="60" as="geometry" />
        </mxCell>
        <mxCell id="za8EDoor_-EJzlwWxWrH-76" value="Webscraper API" style="rounded=0;whiteSpace=wrap;html=1;" parent="1" vertex="1">
          <mxGeometry x="492" y="1021" width="120" height="60" as="geometry" />
        </mxCell>
        <mxCell id="za8EDoor_-EJzlwWxWrH-77" value="Provectus 192.168.50.21" style="rounded=0;whiteSpace=wrap;html=1;" parent="1" vertex="1">
          <mxGeometry x="610" y="651" width="100" height="40" as="geometry" />
        </mxCell>
        <mxCell id="za8EDoor_-EJzlwWxWrH-81" value="Elasticsearch&lt;br&gt;(x3)" style="rounded=0;whiteSpace=wrap;html=1;" parent="1" vertex="1">
          <mxGeometry x="910" y="-20" width="120" height="60" as="geometry" />
        </mxCell>
        <mxCell id="za8EDoor_-EJzlwWxWrH-82" value="PostgreSQL" style="rounded=0;whiteSpace=wrap;html=1;" parent="1" vertex="1">
          <mxGeometry x="910" y="60" width="120" height="60" as="geometry" />
        </mxCell>
        <mxCell id="za8EDoor_-EJzlwWxWrH-83" value="Kafka&lt;br&gt;(x3)" style="rounded=0;whiteSpace=wrap;html=1;" parent="1" vertex="1">
          <mxGeometry x="910" y="140" width="120" height="60" as="geometry" />
        </mxCell>
        <mxCell id="za8EDoor_-EJzlwWxWrH-84" value="NiFi&lt;br&gt;(x3)" style="rounded=0;whiteSpace=wrap;html=1;" parent="1" vertex="1">
          <mxGeometry x="910" y="220" width="120" height="60" as="geometry" />
        </mxCell>
        <mxCell id="za8EDoor_-EJzlwWxWrH-85" value="Spark&lt;br&gt;(x3)" style="rounded=0;whiteSpace=wrap;html=1;" parent="1" vertex="1">
          <mxGeometry x="910" y="300" width="120" height="60" as="geometry" />
        </mxCell>
        <mxCell id="za8EDoor_-EJzlwWxWrH-86" value="Livy" style="rounded=0;whiteSpace=wrap;html=1;" parent="1" vertex="1">
          <mxGeometry x="910" y="380" width="120" height="60" as="geometry" />
        </mxCell>
        <mxCell id="za8EDoor_-EJzlwWxWrH-87" value="Kibana" style="rounded=0;whiteSpace=wrap;html=1;" parent="1" vertex="1">
          <mxGeometry x="910" y="461" width="120" height="60" as="geometry" />
        </mxCell>
        <mxCell id="za8EDoor_-EJzlwWxWrH-88" value="JupyterLab" style="rounded=0;whiteSpace=wrap;html=1;" parent="1" vertex="1">
          <mxGeometry x="910" y="541" width="120" height="60" as="geometry" />
        </mxCell>
        <mxCell id="za8EDoor_-EJzlwWxWrH-89" value="Portainer" style="rounded=0;whiteSpace=wrap;html=1;" parent="1" vertex="1">
          <mxGeometry x="910" y="620" width="120" height="60" as="geometry" />
        </mxCell>
        <mxCell id="za8EDoor_-EJzlwWxWrH-90" value="Rancher" style="rounded=0;whiteSpace=wrap;html=1;" parent="1" vertex="1">
          <mxGeometry x="910" y="698.5" width="120" height="60" as="geometry" />
        </mxCell>
        <mxCell id="za8EDoor_-EJzlwWxWrH-91" value="Provectus" style="rounded=0;whiteSpace=wrap;html=1;" parent="1" vertex="1">
          <mxGeometry x="910" y="780" width="120" height="60" as="geometry" />
        </mxCell>
        <mxCell id="za8EDoor_-EJzlwWxWrH-92" value="Jenkins" style="rounded=0;whiteSpace=wrap;html=1;" parent="1" vertex="1">
          <mxGeometry x="910" y="860" width="120" height="60" as="geometry" />
        </mxCell>
        <mxCell id="za8EDoor_-EJzlwWxWrH-93" value="Sonarqube" style="rounded=0;whiteSpace=wrap;html=1;" parent="1" vertex="1">
          <mxGeometry x="910" y="940" width="120" height="60" as="geometry" />
        </mxCell>
        <mxCell id="za8EDoor_-EJzlwWxWrH-94" value="Nexus" style="rounded=0;whiteSpace=wrap;html=1;" parent="1" vertex="1">
          <mxGeometry x="910" y="1020" width="120" height="60" as="geometry" />
        </mxCell>
        <mxCell id="za8EDoor_-EJzlwWxWrH-95" value="Kubernetes&lt;br&gt;(x3)" style="rounded=0;whiteSpace=wrap;html=1;" parent="1" vertex="1">
          <mxGeometry x="910" y="1100" width="120" height="60" as="geometry" />
        </mxCell>
        <mxCell id="za8EDoor_-EJzlwWxWrH-96" value="Docker" style="rounded=0;whiteSpace=wrap;html=1;" parent="1" vertex="1">
          <mxGeometry x="910" y="1180" width="120" height="60" as="geometry" />
        </mxCell>
        <mxCell id="za8EDoor_-EJzlwWxWrH-99" value="Elasticsearch is used to store all text data, both original data as well as post-processed data from analytics.&amp;nbsp; The majority of all datasets are stored within Elasticsearch for its search capabilities and scalability to handle large amounts of data." style="rounded=0;whiteSpace=wrap;html=1;align=left;" parent="1" vertex="1">
          <mxGeometry x="1240" y="-20" width="480" height="60" as="geometry" />
        </mxCell>
        <mxCell id="za8EDoor_-EJzlwWxWrH-100" value="PostgreSQL is used to store simple tables of numeric data." style="rounded=0;whiteSpace=wrap;html=1;align=left;" parent="1" vertex="1">
          <mxGeometry x="1240" y="60" width="480" height="60" as="geometry" />
        </mxCell>
        <mxCell id="za8EDoor_-EJzlwWxWrH-101" value="Kafka is categorized as a database but not used as such.&amp;nbsp; Kafka is utilized in this architecture to handle backpressure and potential bottlenecks in pipelines.&amp;nbsp; Most Kafka topics sit in front of analytic post-processes (e.g., language translation)." style="rounded=0;whiteSpace=wrap;html=1;align=left;" parent="1" vertex="1">
          <mxGeometry x="1240" y="140" width="480" height="60" as="geometry" />
        </mxCell>
        <mxCell id="za8EDoor_-EJzlwWxWrH-102" value="NiFi is the data ingestion tool for ETL processes.&amp;nbsp; NiFi sits centrally in this architecture and is utilized for data manipulation, data cleaning, data processing, and upserting to databases." style="rounded=0;whiteSpace=wrap;html=1;align=left;" parent="1" vertex="1">
          <mxGeometry x="1240" y="220" width="480" height="60" as="geometry" />
        </mxCell>
        <mxCell id="za8EDoor_-EJzlwWxWrH-103" value="Spark is set up in conjunction with Livy to enable external access to&amp;nbsp; Spark from JupyterLab, NiFi, among other services.&amp;nbsp; Spark is still being integrated into the architecture but will be used for large-scale analytical post-processing of data." style="rounded=0;whiteSpace=wrap;html=1;align=left;" parent="1" vertex="1">
          <mxGeometry x="1240" y="300" width="480" height="60" as="geometry" />
        </mxCell>
        <mxCell id="za8EDoor_-EJzlwWxWrH-104" value="Livy exists solely to expose the Spark cluster externally on the home network." style="rounded=0;whiteSpace=wrap;html=1;align=left;" parent="1" vertex="1">
          <mxGeometry x="1240" y="380" width="480" height="60" as="geometry" />
        </mxCell>
        <mxCell id="za8EDoor_-EJzlwWxWrH-105" value="Kibana is the user interface for interacting with Elasticsearch.&amp;nbsp; Kibana&#39;s capabilities span across dashboard creation, data visualization, query terminal, scripting terminal, index monitoring and more.&amp;nbsp;&amp;nbsp;" style="rounded=0;whiteSpace=wrap;html=1;align=left;" parent="1" vertex="1">
          <mxGeometry x="1240" y="461" width="480" height="60" as="geometry" />
        </mxCell>
        <mxCell id="za8EDoor_-EJzlwWxWrH-106" value="JupyterLab&#39;s server is utilized as a centralized location for mainly prototyping and scripting of analytics in Python and Scala." style="rounded=0;whiteSpace=wrap;html=1;align=left;" parent="1" vertex="1">
          <mxGeometry x="1240" y="541" width="480" height="60" as="geometry" />
        </mxCell>
        <mxCell id="za8EDoor_-EJzlwWxWrH-107" value="Portainer is a popular container deployed via Docker as a user interface for interacting with containers, volumes, images, and more.&amp;nbsp; Portainer is utilized to assess logs and metrics of containers deployed." style="rounded=0;whiteSpace=wrap;html=1;align=left;" parent="1" vertex="1">
          <mxGeometry x="1240" y="621" width="480" height="60" as="geometry" />
        </mxCell>
        <mxCell id="za8EDoor_-EJzlwWxWrH-108" value="Rancher is the user interface of choice that integrates with Kubernetes.&amp;nbsp; Rancher provides access to all pods across the cluster and their logs, resource allocation, and more." style="rounded=0;whiteSpace=wrap;html=1;align=left;" parent="1" vertex="1">
          <mxGeometry x="1240" y="698.5" width="480" height="60" as="geometry" />
        </mxCell>
        <mxCell id="za8EDoor_-EJzlwWxWrH-109" value="Provectus is the 3rd party Kafka user interface chosen to be able to create topics, monitor topics, and adjust settings if needed." style="rounded=0;whiteSpace=wrap;html=1;align=left;" parent="1" vertex="1">
          <mxGeometry x="1240" y="780" width="480" height="60" as="geometry" />
        </mxCell>
        <mxCell id="za8EDoor_-EJzlwWxWrH-110" value="Jenkins is the chief orchestrator of all things CI/CD within this architecture.&amp;nbsp; Jenkins is integrated with the Sonarqube server, Nexus server, and is in development to deploy to the Kubernetes cluster.&amp;nbsp; All repositories integrated with Jenkins have Jenkinsfiles at root." style="rounded=0;whiteSpace=wrap;html=1;align=left;" parent="1" vertex="1">
          <mxGeometry x="1240" y="860" width="480" height="60" as="geometry" />
        </mxCell>
        <mxCell id="za8EDoor_-EJzlwWxWrH-111" value="Sonarqube is the service used for code quality enforcement across repositories being deployed, both for best practices and quality gates.&amp;nbsp; All repositories integrated with Jenkins will also have a sonar-project.properties file connecting it with the service." style="rounded=0;whiteSpace=wrap;html=1;align=left;" parent="1" vertex="1">
          <mxGeometry x="1240" y="941" width="480" height="60" as="geometry" />
        </mxCell>
        <mxCell id="za8EDoor_-EJzlwWxWrH-112" value="Nexus is the internal repository manager for Docker images, 3rd party artifacts, PyPi, and any other files needed." style="rounded=0;whiteSpace=wrap;html=1;align=left;" parent="1" vertex="1">
          <mxGeometry x="1240" y="1020" width="480" height="60" as="geometry" />
        </mxCell>
        <mxCell id="za8EDoor_-EJzlwWxWrH-113" value="Kubernetes is the deployment cluster for all containers and microservices.&amp;nbsp; Microservices such as the webscraper API and language translation API will exist on the cluster when CPU-only deployments are needed." style="rounded=0;whiteSpace=wrap;html=1;align=left;" parent="1" vertex="1">
          <mxGeometry x="1240" y="1100" width="480" height="60" as="geometry" />
        </mxCell>
        <mxCell id="za8EDoor_-EJzlwWxWrH-114" value="Soon to be retired, the Docker server is used for prototyping builds.&amp;nbsp; In progress of migrating everything to Kubernetes cluster.&amp;nbsp;&amp;nbsp;" style="rounded=0;whiteSpace=wrap;html=1;align=left;" parent="1" vertex="1">
          <mxGeometry x="1240" y="1180" width="480" height="60" as="geometry" />
        </mxCell>
        <mxCell id="za8EDoor_-EJzlwWxWrH-115" value="2 &lt;br&gt;Core&lt;br&gt;(x3)" style="rounded=0;whiteSpace=wrap;html=1;" parent="1" vertex="1">
          <mxGeometry x="1050" y="-20" width="50" height="60" as="geometry" />
        </mxCell>
        <mxCell id="za8EDoor_-EJzlwWxWrH-116" value="16 GB RAM&lt;br&gt;(x3)" style="rounded=0;whiteSpace=wrap;html=1;" parent="1" vertex="1">
          <mxGeometry x="1110" y="-20" width="50" height="60" as="geometry" />
        </mxCell>
        <mxCell id="za8EDoor_-EJzlwWxWrH-117" value="1.1 TB HDD&lt;br&gt;(x3)" style="rounded=0;whiteSpace=wrap;html=1;" parent="1" vertex="1">
          <mxGeometry x="1170" y="-20" width="50" height="60" as="geometry" />
        </mxCell>
        <mxCell id="za8EDoor_-EJzlwWxWrH-118" value="1 &lt;br&gt;Core" style="rounded=0;whiteSpace=wrap;html=1;" parent="1" vertex="1">
          <mxGeometry x="1050" y="60" width="50" height="60" as="geometry" />
        </mxCell>
        <mxCell id="za8EDoor_-EJzlwWxWrH-119" value="16 GB RAM" style="rounded=0;whiteSpace=wrap;html=1;" parent="1" vertex="1">
          <mxGeometry x="1110" y="60" width="50" height="60" as="geometry" />
        </mxCell>
        <mxCell id="za8EDoor_-EJzlwWxWrH-120" value="1 TB HDD" style="rounded=0;whiteSpace=wrap;html=1;" parent="1" vertex="1">
          <mxGeometry x="1170" y="60" width="50" height="60" as="geometry" />
        </mxCell>
        <mxCell id="za8EDoor_-EJzlwWxWrH-121" value="1 &lt;br&gt;Core&lt;br&gt;(x3)" style="rounded=0;whiteSpace=wrap;html=1;" parent="1" vertex="1">
          <mxGeometry x="1050" y="140" width="50" height="60" as="geometry" />
        </mxCell>
        <mxCell id="za8EDoor_-EJzlwWxWrH-122" value="4 GB RAM&lt;br&gt;(x3)" style="rounded=0;whiteSpace=wrap;html=1;" parent="1" vertex="1">
          <mxGeometry x="1110" y="140" width="50" height="60" as="geometry" />
        </mxCell>
        <mxCell id="za8EDoor_-EJzlwWxWrH-123" value="505 GB HDD&lt;br&gt;(x3)" style="rounded=0;whiteSpace=wrap;html=1;" parent="1" vertex="1">
          <mxGeometry x="1170" y="140" width="50" height="60" as="geometry" />
        </mxCell>
        <mxCell id="za8EDoor_-EJzlwWxWrH-124" value="4 &lt;br&gt;Core&lt;br&gt;(x3)" style="rounded=0;whiteSpace=wrap;html=1;" parent="1" vertex="1">
          <mxGeometry x="1050" y="222" width="50" height="60" as="geometry" />
        </mxCell>
        <mxCell id="za8EDoor_-EJzlwWxWrH-125" value="16 GB RAM&lt;br&gt;(x3)" style="rounded=0;whiteSpace=wrap;html=1;" parent="1" vertex="1">
          <mxGeometry x="1110" y="222" width="50" height="60" as="geometry" />
        </mxCell>
        <mxCell id="za8EDoor_-EJzlwWxWrH-126" value="225 GB HDD&lt;br&gt;(x3)" style="rounded=0;whiteSpace=wrap;html=1;" parent="1" vertex="1">
          <mxGeometry x="1170" y="222" width="50" height="60" as="geometry" />
        </mxCell>
        <mxCell id="za8EDoor_-EJzlwWxWrH-127" value="1 &lt;br&gt;Core&lt;br&gt;(x3)" style="rounded=0;whiteSpace=wrap;html=1;" parent="1" vertex="1">
          <mxGeometry x="1050" y="300" width="50" height="60" as="geometry" />
        </mxCell>
        <mxCell id="za8EDoor_-EJzlwWxWrH-128" value="16 GB RAM&lt;br&gt;(x3)" style="rounded=0;whiteSpace=wrap;html=1;" parent="1" vertex="1">
          <mxGeometry x="1110" y="300" width="50" height="60" as="geometry" />
        </mxCell>
        <mxCell id="za8EDoor_-EJzlwWxWrH-129" value="225 GB HDD&lt;br&gt;(x3)" style="rounded=0;whiteSpace=wrap;html=1;" parent="1" vertex="1">
          <mxGeometry x="1170" y="300" width="50" height="60" as="geometry" />
        </mxCell>
        <mxCell id="za8EDoor_-EJzlwWxWrH-130" value="1 &lt;br&gt;Core" style="rounded=0;whiteSpace=wrap;html=1;" parent="1" vertex="1">
          <mxGeometry x="1050" y="380" width="50" height="60" as="geometry" />
        </mxCell>
        <mxCell id="za8EDoor_-EJzlwWxWrH-131" value="16 GB RAM" style="rounded=0;whiteSpace=wrap;html=1;" parent="1" vertex="1">
          <mxGeometry x="1110" y="380" width="50" height="60" as="geometry" />
        </mxCell>
        <mxCell id="za8EDoor_-EJzlwWxWrH-132" value="1 TB HDD" style="rounded=0;whiteSpace=wrap;html=1;" parent="1" vertex="1">
          <mxGeometry x="1170" y="380" width="50" height="60" as="geometry" />
        </mxCell>
        <mxCell id="za8EDoor_-EJzlwWxWrH-133" value="1 &lt;br&gt;Core" style="rounded=0;whiteSpace=wrap;html=1;" parent="1" vertex="1">
          <mxGeometry x="1050" y="461" width="50" height="139" as="geometry" />
        </mxCell>
        <mxCell id="za8EDoor_-EJzlwWxWrH-134" value="8 GB RAM" style="rounded=0;whiteSpace=wrap;html=1;" parent="1" vertex="1">
          <mxGeometry x="1110" y="461" width="50" height="139" as="geometry" />
        </mxCell>
        <mxCell id="za8EDoor_-EJzlwWxWrH-135" value="65 GB HDD" style="rounded=0;whiteSpace=wrap;html=1;" parent="1" vertex="1">
          <mxGeometry x="1170" y="461" width="50" height="139" as="geometry" />
        </mxCell>
        <mxCell id="za8EDoor_-EJzlwWxWrH-139" value="-" style="rounded=0;whiteSpace=wrap;html=1;" parent="1" vertex="1">
          <mxGeometry x="1050" y="620" width="50" height="60" as="geometry" />
        </mxCell>
        <mxCell id="za8EDoor_-EJzlwWxWrH-140" value="-" style="rounded=0;whiteSpace=wrap;html=1;" parent="1" vertex="1">
          <mxGeometry x="1110" y="620" width="50" height="60" as="geometry" />
        </mxCell>
        <mxCell id="za8EDoor_-EJzlwWxWrH-141" value="-" style="rounded=0;whiteSpace=wrap;html=1;" parent="1" vertex="1">
          <mxGeometry x="1170" y="620" width="50" height="60" as="geometry" />
        </mxCell>
        <mxCell id="za8EDoor_-EJzlwWxWrH-142" value="-" style="rounded=0;whiteSpace=wrap;html=1;" parent="1" vertex="1">
          <mxGeometry x="1050" y="698.5" width="50" height="60" as="geometry" />
        </mxCell>
        <mxCell id="za8EDoor_-EJzlwWxWrH-143" value="-" style="rounded=0;whiteSpace=wrap;html=1;" parent="1" vertex="1">
          <mxGeometry x="1110" y="698.5" width="50" height="60" as="geometry" />
        </mxCell>
        <mxCell id="za8EDoor_-EJzlwWxWrH-144" value="-" style="rounded=0;whiteSpace=wrap;html=1;" parent="1" vertex="1">
          <mxGeometry x="1170" y="698.5" width="50" height="60" as="geometry" />
        </mxCell>
        <mxCell id="za8EDoor_-EJzlwWxWrH-145" value="-" style="rounded=0;whiteSpace=wrap;html=1;" parent="1" vertex="1">
          <mxGeometry x="1050" y="780" width="50" height="60" as="geometry" />
        </mxCell>
        <mxCell id="za8EDoor_-EJzlwWxWrH-146" value="-" style="rounded=0;whiteSpace=wrap;html=1;" parent="1" vertex="1">
          <mxGeometry x="1110" y="780" width="50" height="60" as="geometry" />
        </mxCell>
        <mxCell id="za8EDoor_-EJzlwWxWrH-147" value="-" style="rounded=0;whiteSpace=wrap;html=1;" parent="1" vertex="1">
          <mxGeometry x="1170" y="780" width="50" height="60" as="geometry" />
        </mxCell>
        <mxCell id="za8EDoor_-EJzlwWxWrH-148" value="1 &lt;br&gt;Core" style="rounded=0;whiteSpace=wrap;html=1;" parent="1" vertex="1">
          <mxGeometry x="1050" y="860" width="50" height="60" as="geometry" />
        </mxCell>
        <mxCell id="za8EDoor_-EJzlwWxWrH-149" value="4 GB RAM" style="rounded=0;whiteSpace=wrap;html=1;" parent="1" vertex="1">
          <mxGeometry x="1110" y="860" width="50" height="60" as="geometry" />
        </mxCell>
        <mxCell id="za8EDoor_-EJzlwWxWrH-150" value="105 GB HDD" style="rounded=0;whiteSpace=wrap;html=1;" parent="1" vertex="1">
          <mxGeometry x="1170" y="860" width="50" height="60" as="geometry" />
        </mxCell>
        <mxCell id="za8EDoor_-EJzlwWxWrH-151" value="1 &lt;br&gt;Core" style="rounded=0;whiteSpace=wrap;html=1;" parent="1" vertex="1">
          <mxGeometry x="1050" y="940" width="50" height="60" as="geometry" />
        </mxCell>
        <mxCell id="za8EDoor_-EJzlwWxWrH-152" value="4 GB RAM" style="rounded=0;whiteSpace=wrap;html=1;" parent="1" vertex="1">
          <mxGeometry x="1110" y="940" width="50" height="60" as="geometry" />
        </mxCell>
        <mxCell id="za8EDoor_-EJzlwWxWrH-153" value="105 GB HDD" style="rounded=0;whiteSpace=wrap;html=1;" parent="1" vertex="1">
          <mxGeometry x="1170" y="940" width="50" height="60" as="geometry" />
        </mxCell>
        <mxCell id="za8EDoor_-EJzlwWxWrH-154" value="1 &lt;br&gt;Core" style="rounded=0;whiteSpace=wrap;html=1;" parent="1" vertex="1">
          <mxGeometry x="1050" y="1020" width="50" height="60" as="geometry" />
        </mxCell>
        <mxCell id="za8EDoor_-EJzlwWxWrH-155" value="4 GB RAM" style="rounded=0;whiteSpace=wrap;html=1;" parent="1" vertex="1">
          <mxGeometry x="1110" y="1020" width="50" height="60" as="geometry" />
        </mxCell>
        <mxCell id="za8EDoor_-EJzlwWxWrH-156" value="1 TB HDD" style="rounded=0;whiteSpace=wrap;html=1;" parent="1" vertex="1">
          <mxGeometry x="1170" y="1020" width="50" height="60" as="geometry" />
        </mxCell>
        <mxCell id="za8EDoor_-EJzlwWxWrH-157" value="1 &lt;br&gt;Core&lt;br&gt;(x3)" style="rounded=0;whiteSpace=wrap;html=1;" parent="1" vertex="1">
          <mxGeometry x="1050" y="1100" width="50" height="60" as="geometry" />
        </mxCell>
        <mxCell id="za8EDoor_-EJzlwWxWrH-158" value="4 GB&amp;nbsp; RAM&lt;br&gt;(x3)" style="rounded=0;whiteSpace=wrap;html=1;" parent="1" vertex="1">
          <mxGeometry x="1110" y="1100" width="50" height="60" as="geometry" />
        </mxCell>
        <mxCell id="za8EDoor_-EJzlwWxWrH-159" value="105 GB HDD&lt;br&gt;(x3)" style="rounded=0;whiteSpace=wrap;html=1;" parent="1" vertex="1">
          <mxGeometry x="1170" y="1100" width="50" height="60" as="geometry" />
        </mxCell>
        <mxCell id="za8EDoor_-EJzlwWxWrH-160" value="6 &lt;br&gt;Core" style="rounded=0;whiteSpace=wrap;html=1;" parent="1" vertex="1">
          <mxGeometry x="1050" y="1180" width="50" height="60" as="geometry" />
        </mxCell>
        <mxCell id="za8EDoor_-EJzlwWxWrH-161" value="16 GB RAM" style="rounded=0;whiteSpace=wrap;html=1;" parent="1" vertex="1">
          <mxGeometry x="1110" y="1180" width="50" height="60" as="geometry" />
        </mxCell>
        <mxCell id="za8EDoor_-EJzlwWxWrH-162" value="525 GB HDD" style="rounded=0;whiteSpace=wrap;html=1;" parent="1" vertex="1">
          <mxGeometry x="1170" y="1180" width="50" height="60" as="geometry" />
        </mxCell>
      </root>
    </mxGraphModel>
  </diagram>
</mxfile>
